<svg width="40" height="40" viewBox="0 0 800 958" fill="none" xmlns="http://www.w3.org/2000/svg">
<ellipse cx="399.5" cy="777.5" rx="172.5" ry="116.5" fill="#434343"/>
<path d="M400 22C234.667 22 100 152 100 311.667C99.9048 374.419 120.855 435.392 159.5 484.833L373.5 764.833C376.611 768.91 380.62 772.214 385.217 774.489C389.813 776.763 394.872 777.946 400 777.946C405.128 777.946 410.187 776.763 414.784 774.489C419.38 772.214 423.389 768.91 426.5 764.833L640.5 484.833C679.134 435.386 700.082 374.417 700 311.667C700 152 565.333 22 400 22Z" fill="#27C265"/>
<path d="M422.833 202.167C398.285 197.284 372.818 200.426 350.192 211.127C327.566 221.829 308.982 239.523 297.183 261.597C285.385 283.67 280.998 308.953 284.671 333.711C288.344 358.469 299.881 381.39 317.579 399.088C335.277 416.786 358.198 428.323 382.956 431.996C407.714 435.669 432.997 431.282 455.07 419.483C477.144 407.685 494.838 389.101 505.54 366.475C516.241 343.849 519.383 318.381 514.5 293.833C509.999 271.202 498.887 250.413 482.571 234.096C466.254 217.78 445.465 206.668 422.833 202.167Z" fill="#10843F"/>
</svg>
